# xmcd
#
# Track frame offsets: 
#        182
#        10207
#        24817
#        40320
#        56442
#        72115
#        86775
#        99902
#        115960
#        131760
#        149745
#        168727
#        178690
#        192270
#        205840
#        217905
#        227462
#        242215
#        251982
#        265240
#        281332
#        291807
#        304790
#        318555
#
# Disc length: 4443 seconds
#
# Revision: 5
# Processed by: cddbd v1.5.2PL0 Copyright (c) Steve Scherf et al.
# Submitted via: ExactAudioCopyFreeDBPlugin 1.0
#
DISCID=63115918
DTITLE=Ray Charles - Ray Charles:  The Complete Country and Western Reco
DTITLE=rdings, 1959-1986
DYEAR=1998
DGENRE=Country
TTITLE0=Bye, Bye Love
TTITLE1=You Don't Know Me
TTITLE2=Half as Much
TTITLE3=I Love You So Much it Hurts
TTITLE4=Just a Little Lovin'
TTITLE5=Born to Lose
TTITLE6=Worried Mind
TTITLE7=It Makes No Difference Now
TTITLE8=You Win Again
TTITLE9=Careless Love
TTITLE10=I Cant' Stop Loving You
TTITLE11=Hey, Good Lookin'
TTITLE12=You Are My Sinshine
TTITLE13=No Letter Today
TTITLE14=Someday (You'll Want Me to Want You)
TTITLE15=Don't Tell Me Your Troubles
TTITLE16=Midnight
TTITLE17=Oh, Lonesome Me
TTITLE18=Take These Chains from My Heart
TTITLE19=Your Cheating Heart
TTITLE20=I'll Never Stand in Your Way
TTITLE21=Making Believe
TTITLE22=Teardrops in My Heart
TTITLE23=Hang Your Head in Shame
EXTD=Part of 4-disk box set
EXTT0=
EXTT1=
EXTT2=
EXTT3=
EXTT4=
EXTT5=
EXTT6=
EXTT7=
EXTT8=
EXTT9=
EXTT10=
EXTT11=
EXTT12=
EXTT13=
EXTT14=
EXTT15=
EXTT16=
EXTT17=
EXTT18=
EXTT19=
EXTT20=
EXTT21=
EXTT22=
EXTT23=
PLAYORDER=
